<?xml version="1.0" encoding="UTF-8"?>
<svg width="128px" height="128px" viewBox="0 0 128 128" version="1.1" xmlns="http://www.w3.org/2000/svg">
    <g stroke="none" stroke-width="1" fill="none" fill-rule="evenodd">
        <circle fill="#1890FF" cx="64" cy="64" r="64"/>
        <path d="M64,32 C45.2222222,32 30,47.2222222 30,66 C30,84.7777778 45.2222222,100 64,100 C82.7777778,100 98,84.7777778 98,66 C98,47.2222222 82.7777778,32 64,32 Z M64,88 C50.7777778,88 40,77.2222222 40,64 C40,50.7777778 50.7777778,40 64,40 C77.2222222,40 88,50.7777778 88,64 C88,77.2222222 77.2222222,88 64,88 Z" fill="#FFFFFF"/>
        <path d="M64,48 C56.2777778,48 50,54.2777778 50,62 C50,69.7222222 56.2777778,76 64,76 C71.7222222,76 78,69.7222222 78,62 C78,54.2777778 71.7222222,48 64,48 Z" fill="#FFFFFF"/>
    </g>
</svg> 